<svg xmlns="http://www.w3.org/2000/svg" xmlns:xlink="http://www.w3.org/1999/xlink" preserveAspectRatio="xMidYMid" width="17.5" height="16.25" viewBox="0 0 17.5 16.25">
  <defs>
    <style>
      .cls-1 {
        fill: #5087f8;
        fill-rule: evenodd;
      }
    </style>
  </defs>
  <path d="M15.998,1.493 C13.996,-0.545 10.751,-0.545 8.749,1.493 C6.746,-0.545 3.501,-0.545 1.500,1.493 C-0.503,3.534 -0.503,6.839 1.500,8.879 L8.749,16.264 L15.998,8.879 C18.000,6.839 18.000,3.534 15.998,1.493 ZM15.092,7.956 L12.717,10.376 L8.749,14.419 L4.780,10.376 L2.406,7.956 L2.411,7.954 C0.943,6.420 0.916,3.935 2.406,2.418 C3.907,0.887 6.341,0.887 7.843,2.418 C7.888,2.463 8.749,3.340 8.749,3.340 C8.749,3.340 9.609,2.463 9.655,2.418 C11.156,0.887 13.590,0.887 15.092,2.418 C16.594,3.947 16.594,6.427 15.092,7.956 Z" class="cls-1"/>
</svg>
